<svg id="Layer_1" data-name="Layer 1" xmlns="http://www.w3.org/2000/svg" viewBox="0 0 345.14 426.11"><defs><style>.cls-1{fill:#fff;}</style></defs><path class="cls-1" d="M226.53,578.22c-2.55-.59-5.11-1.16-7.65-1.78a50.6,50.6,0,0,1-37.95-43.61c-.49-5-.76-10-.77-14.94Q180.1,401,180.21,284c0-3.85-1-5.84-4.76-7.26-16.15-6-25.71-23.34-22.9-40.85,2.76-17.2,17.26-30.7,34.42-31.24,15.66-.49,31.35-.25,47-.33,8.47,0,6.94-.06,7-6.89.09-7.65.35-15.28,3.79-22.33,7.44-15.25,20.07-22.64,36.7-22.8,28.72-.27,57.45-.21,86.17,0,20.16.13,35.22,11.91,39.44,30.94,1.15,5.2.95,10.75.88,16.14,0,3.79,1.23,5,5,5,16.23-.09,32.48-.36,48.69.25,21.35.8,37,18.74,35.4,40.13-1.14,15.19-9.05,26-23,31.88-3.85,1.63-5.06,3.49-5.05,7.57q.18,118.19.1,236.39c0,11.26-1.47,22.13-7.29,32-8.07,13.72-19.83,22.13-35.66,24.66a23.68,23.68,0,0,0-3.15.94ZM199.65,405.61q0,34.32,0,68.65c0,17.34-.15,34.67.09,52S213,559.18,232.61,558.6c17.74-.52,35.51-.11,53.26-.11,43.7,0,87.4.13,131.09-.16a35.92,35.92,0,0,0,15.92-3.62c12.67-6.61,16.94-18.39,16.94-32q.06-119,0-238c0-5.39,0-5.42-5.6-5.42q-119.65,0-239.29-.09c-4.1,0-5.42,1-5.4,5.32C199.72,324.89,199.65,365.25,199.65,405.61ZM324.76,223.45H194.09c-1.8,0-3.61,0-5.4.12-8.29.79-14.45,5.88-16.57,13.57-2,7.25.5,15.63,7,19.31a29.42,29.42,0,0,0,13.72,3.66q131.7.3,263.41.12a37,37,0,0,0,7.43-.7,18,18,0,0,0,13.86-20.59c-1.78-9.81-9-15.47-20.08-15.48Q391.13,223.42,324.76,223.45Zm-.07-19.13c18.31,0,36.62.05,54.93,0,11.15,0,9.17,1.14,9.38-9.58a38.69,38.69,0,0,0-.12-4.57c-1.07-10.63-8.82-18.32-19.07-18.36q-45.13-.18-90.29,0a18.4,18.4,0,0,0-18.16,14.32c-1,4.24-.46,8.8-.95,13.19-.48,4.2,1.37,5.11,5.2,5.08C285.3,204.24,305,204.32,324.69,204.32Z" transform="translate(-152.06 -152.12)"/><path class="cls-1" d="M315,410.58q0-46,0-92c0-7.11,3.48-11.39,9.21-11.61a9,9,0,0,1,9.61,7.41,28.51,28.51,0,0,1,.6,5.76q0,90.52,0,181a26.57,26.57,0,0,1-.31,4.55c-1,5.49-5.05,9.15-9.8,8.89s-8.69-4.15-9.26-9.59a41.15,41.15,0,0,1-.07-4.16Z" transform="translate(-152.06 -152.12)"/><path class="cls-1" d="M275.44,410.89q0,45.8,0,91.58c0,6.89-2.32,10.39-7.6,11.74a9.18,9.18,0,0,1-11-6.31,26.89,26.89,0,0,1-.74-6.58q-.06-90.52,0-181.06a31.32,31.32,0,0,1,.65-6.18A9,9,0,0,1,265.3,307c4.33-.18,8.09,2.16,9.28,6.2a23.27,23.27,0,0,1,.83,6.55Q275.48,365.31,275.44,410.89Z" transform="translate(-152.06 -152.12)"/><path class="cls-1" d="M374,410.48q0-46.19,0-92.38c0-7.2,3.85-11.36,10-11.11a9.14,9.14,0,0,1,8.81,7.9,36,36,0,0,1,.26,5q0,90.93,0,181.84c0,7.19-1.85,10.66-6.36,12.23a9.4,9.4,0,0,1-12.59-7.76,37.72,37.72,0,0,1-.14-5Q374,455.83,374,410.48Z" transform="translate(-152.06 -152.12)"/></svg>